# xmcd CD database file
#
# Track frame offsets:
#	150
#	21317
#	39799
#	61803
#	77915
#	92480
#	119821
#	139753
#	171767
#	193517
#
# Disc length: 3160 seconds
#
# Revision: 0
# Processed by: cddbd v1.5.2PL0 Copyright (c) Steve Scherf et al.
# Submitted via: CDex 1.70beta2
#
DISCID=7f0c560a
DTITLE=Stacks Edward Band - Frame By Frame
DYEAR=2005
DGENRE=Blues
TTITLE0=You Gave Me The Blues
TTITLE1=Hard To Breath
TTITLE2=Trying To Be Your Man
TTITLE3=Playing With My Heart
TTITLE4=Walking The Line
TTITLE5=Fades to Light
TTITLE6=You Better Leave
TTITLE7=Small Town Gambler
TTITLE8=Can You See Me Now
TTITLE9=She's Gone
EXTD=YEAR: 2005
EXTT0=
EXTT1=
EXTT2=
EXTT3=
EXTT4=
EXTT5=
EXTT6=
EXTT7=
EXTT8=
EXTT9=
PLAYORDER=
